<mxfile host="app.diagrams.net" modified="2022-09-10T14:40:36.150Z" agent="5.0 (Macintosh; Intel Mac OS X 10_15_7) AppleWebKit/537.36 (KHTML, like Gecko) Chrome/105.0.0.0 Safari/537.36" etag="dHbXSanWAbwxG1QHeZ1L" version="20.2.7" type="github">
  <diagram id="uZk1RKuiWEZyAYKwDE1Y" name="페이지-1">
    <mxGraphModel dx="2864" dy="1026" grid="1" gridSize="10" guides="1" tooltips="1" connect="1" arrows="1" fold="1" page="1" pageScale="1" pageWidth="827" pageHeight="1169" math="0" shadow="0">
      <root>
        <mxCell id="0" />
        <mxCell id="1" parent="0" />
        <mxCell id="GG2P7iOBwu5DhiZd1Pa6-19" value="" style="edgeStyle=orthogonalEdgeStyle;rounded=0;orthogonalLoop=1;jettySize=auto;html=1;" parent="1" source="GG2P7iOBwu5DhiZd1Pa6-16" target="GG2P7iOBwu5DhiZd1Pa6-18" edge="1">
          <mxGeometry relative="1" as="geometry" />
        </mxCell>
        <mxCell id="GG2P7iOBwu5DhiZd1Pa6-24" style="edgeStyle=orthogonalEdgeStyle;rounded=0;orthogonalLoop=1;jettySize=auto;html=1;entryX=0;entryY=0.5;entryDx=0;entryDy=0;entryPerimeter=0;" parent="1" source="GG2P7iOBwu5DhiZd1Pa6-16" target="GG2P7iOBwu5DhiZd1Pa6-23" edge="1">
          <mxGeometry relative="1" as="geometry" />
        </mxCell>
        <mxCell id="GG2P7iOBwu5DhiZd1Pa6-16" value="User" style="verticalLabelPosition=bottom;html=1;verticalAlign=top;align=center;strokeColor=none;fillColor=#00BEF2;shape=mxgraph.azure.user;fontStyle=1;fontSize=13;" parent="1" vertex="1">
          <mxGeometry x="-219" y="333.5" width="47.5" height="45" as="geometry" />
        </mxCell>
        <mxCell id="GG2P7iOBwu5DhiZd1Pa6-18" value="dalda.shop" style="sketch=0;points=[[0,0,0],[0.25,0,0],[0.5,0,0],[0.75,0,0],[1,0,0],[0,1,0],[0.25,1,0],[0.5,1,0],[0.75,1,0],[1,1,0],[0,0.25,0],[0,0.5,0],[0,0.75,0],[1,0.25,0],[1,0.5,0],[1,0.75,0]];outlineConnect=0;fontColor=#232F3E;gradientColor=#945DF2;gradientDirection=north;fillColor=#5A30B5;strokeColor=#ffffff;dashed=0;verticalLabelPosition=top;verticalAlign=bottom;align=center;fontSize=13;fontStyle=1;aspect=fixed;shape=mxgraph.aws4.resourceIcon;resIcon=mxgraph.aws4.route_53;labelPosition=center;html=1;" parent="1" vertex="1">
          <mxGeometry x="-216.25" y="251" width="42" height="42" as="geometry" />
        </mxCell>
        <mxCell id="GG2P7iOBwu5DhiZd1Pa6-26" style="edgeStyle=orthogonalEdgeStyle;rounded=0;orthogonalLoop=1;jettySize=auto;html=1;" parent="1" source="GG2P7iOBwu5DhiZd1Pa6-23" target="GG2P7iOBwu5DhiZd1Pa6-25" edge="1">
          <mxGeometry relative="1" as="geometry" />
        </mxCell>
        <mxCell id="GG2P7iOBwu5DhiZd1Pa6-55" style="edgeStyle=orthogonalEdgeStyle;rounded=0;orthogonalLoop=1;jettySize=auto;html=1;startArrow=none;" parent="1" source="FbLSjocSeh3icAdCr7Oj-27" target="GG2P7iOBwu5DhiZd1Pa6-27" edge="1">
          <mxGeometry relative="1" as="geometry" />
        </mxCell>
        <mxCell id="GG2P7iOBwu5DhiZd1Pa6-23" value="cloudFront" style="sketch=0;points=[[0,0,0],[0.25,0,0],[0.5,0,0],[0.75,0,0],[1,0,0],[0,1,0],[0.25,1,0],[0.5,1,0],[0.75,1,0],[1,1,0],[0,0.25,0],[0,0.5,0],[0,0.75,0],[1,0.25,0],[1,0.5,0],[1,0.75,0]];outlineConnect=0;fontColor=#232F3E;gradientColor=#945DF2;gradientDirection=north;fillColor=#5A30B5;strokeColor=#ffffff;dashed=0;verticalLabelPosition=bottom;verticalAlign=top;align=center;html=1;fontSize=13;fontStyle=1;aspect=fixed;shape=mxgraph.aws4.resourceIcon;resIcon=mxgraph.aws4.cloudfront;" parent="1" vertex="1">
          <mxGeometry x="-81" y="337.5" width="38" height="38" as="geometry" />
        </mxCell>
        <mxCell id="GG2P7iOBwu5DhiZd1Pa6-25" value="S3" style="sketch=0;points=[[0,0,0],[0.25,0,0],[0.5,0,0],[0.75,0,0],[1,0,0],[0,1,0],[0.25,1,0],[0.5,1,0],[0.75,1,0],[1,1,0],[0,0.25,0],[0,0.5,0],[0,0.75,0],[1,0.25,0],[1,0.5,0],[1,0.75,0]];outlineConnect=0;fontColor=#232F3E;gradientColor=#60A337;gradientDirection=north;fillColor=#277116;strokeColor=#ffffff;dashed=0;verticalLabelPosition=bottom;verticalAlign=top;align=center;html=1;fontSize=13;fontStyle=1;aspect=fixed;shape=mxgraph.aws4.resourceIcon;resIcon=mxgraph.aws4.s3;" parent="1" vertex="1">
          <mxGeometry x="-87" y="521" width="50" height="50" as="geometry" />
        </mxCell>
        <mxCell id="FbLSjocSeh3icAdCr7Oj-35" style="edgeStyle=orthogonalEdgeStyle;rounded=0;orthogonalLoop=1;jettySize=auto;html=1;" edge="1" parent="1" source="GG2P7iOBwu5DhiZd1Pa6-27" target="FbLSjocSeh3icAdCr7Oj-26">
          <mxGeometry relative="1" as="geometry">
            <Array as="points">
              <mxPoint x="160" y="356" />
              <mxPoint x="160" y="240" />
            </Array>
          </mxGeometry>
        </mxCell>
        <mxCell id="FbLSjocSeh3icAdCr7Oj-36" style="edgeStyle=orthogonalEdgeStyle;rounded=0;orthogonalLoop=1;jettySize=auto;html=1;" edge="1" parent="1" source="GG2P7iOBwu5DhiZd1Pa6-27" target="FbLSjocSeh3icAdCr7Oj-23">
          <mxGeometry relative="1" as="geometry">
            <Array as="points">
              <mxPoint x="160" y="356" />
              <mxPoint x="160" y="473" />
            </Array>
          </mxGeometry>
        </mxCell>
        <mxCell id="GG2P7iOBwu5DhiZd1Pa6-27" value="ELB" style="sketch=0;points=[[0,0,0],[0.25,0,0],[0.5,0,0],[0.75,0,0],[1,0,0],[0,1,0],[0.25,1,0],[0.5,1,0],[0.75,1,0],[1,1,0],[0,0.25,0],[0,0.5,0],[0,0.75,0],[1,0.25,0],[1,0.5,0],[1,0.75,0]];outlineConnect=0;fontColor=#232F3E;gradientColor=#945DF2;gradientDirection=north;fillColor=#5A30B5;strokeColor=#ffffff;dashed=0;verticalLabelPosition=bottom;verticalAlign=top;align=center;html=1;fontSize=13;fontStyle=1;aspect=fixed;shape=mxgraph.aws4.resourceIcon;resIcon=mxgraph.aws4.elastic_load_balancing;" parent="1" vertex="1">
          <mxGeometry x="99" y="331.5" width="49" height="49" as="geometry" />
        </mxCell>
        <mxCell id="FbLSjocSeh3icAdCr7Oj-14" style="edgeStyle=orthogonalEdgeStyle;rounded=0;orthogonalLoop=1;jettySize=auto;html=1;" edge="1" parent="1">
          <mxGeometry relative="1" as="geometry">
            <mxPoint x="660" y="701" as="sourcePoint" />
          </mxGeometry>
        </mxCell>
        <mxCell id="FbLSjocSeh3icAdCr7Oj-15" style="edgeStyle=orthogonalEdgeStyle;rounded=0;orthogonalLoop=1;jettySize=auto;html=1;labelPosition=center;verticalLabelPosition=top;align=center;verticalAlign=bottom;" edge="1" parent="1">
          <mxGeometry relative="1" as="geometry">
            <mxPoint x="436" y="528.5" as="targetPoint" />
          </mxGeometry>
        </mxCell>
        <mxCell id="FbLSjocSeh3icAdCr7Oj-26" value="Availability zone" style="sketch=0;outlineConnect=0;gradientColor=none;html=1;whiteSpace=wrap;fontSize=12;fontStyle=0;shape=mxgraph.aws4.group;grIcon=mxgraph.aws4.group_availability_zone;strokeColor=#545B64;fillColor=none;verticalAlign=top;align=left;spacingLeft=30;fontColor=#545B64;dashed=1;" vertex="1" parent="1">
          <mxGeometry x="180" y="130" width="840" height="220" as="geometry" />
        </mxCell>
        <mxCell id="GG2P7iOBwu5DhiZd1Pa6-13" value="VPC" style="points=[[0,0],[0.25,0],[0.5,0],[0.75,0],[1,0],[1,0.25],[1,0.5],[1,0.75],[1,1],[0.75,1],[0.5,1],[0.25,1],[0,1],[0,0.75],[0,0.5],[0,0.25]];outlineConnect=0;gradientColor=none;html=1;whiteSpace=wrap;fontSize=12;fontStyle=0;container=0;pointerEvents=0;collapsible=0;recursiveResize=0;shape=mxgraph.aws4.group;grIcon=mxgraph.aws4.group_vpc;strokeColor=#248814;fillColor=none;verticalAlign=top;align=left;spacingLeft=30;fontColor=#AAB7B8;dashed=0;" parent="1" vertex="1">
          <mxGeometry x="20" y="100" width="1030" height="510" as="geometry" />
        </mxCell>
        <mxCell id="GG2P7iOBwu5DhiZd1Pa6-14" value="Public subnet" style="points=[[0,0],[0.25,0],[0.5,0],[0.75,0],[1,0],[1,0.25],[1,0.5],[1,0.75],[1,1],[0.75,1],[0.5,1],[0.25,1],[0,1],[0,0.75],[0,0.5],[0,0.25]];outlineConnect=0;gradientColor=none;html=1;whiteSpace=wrap;fontSize=12;fontStyle=0;container=0;pointerEvents=0;collapsible=0;recursiveResize=0;shape=mxgraph.aws4.group;grIcon=mxgraph.aws4.group_security_group;grStroke=0;strokeColor=#248814;fillColor=#E9F3E6;verticalAlign=top;align=left;spacingLeft=30;fontColor=#248814;dashed=0;" parent="1" vertex="1">
          <mxGeometry x="200" y="160" width="300" height="170" as="geometry" />
        </mxCell>
        <mxCell id="FbLSjocSeh3icAdCr7Oj-23" value="Availability zone" style="sketch=0;outlineConnect=0;gradientColor=none;html=1;whiteSpace=wrap;fontSize=12;fontStyle=0;shape=mxgraph.aws4.group;grIcon=mxgraph.aws4.group_availability_zone;strokeColor=#545B64;fillColor=none;verticalAlign=top;align=left;spacingLeft=30;fontColor=#545B64;dashed=1;" vertex="1" parent="1">
          <mxGeometry x="180" y="370" width="820" height="205" as="geometry" />
        </mxCell>
        <mxCell id="FbLSjocSeh3icAdCr7Oj-21" value="Private subnet" style="points=[[0,0],[0.25,0],[0.5,0],[0.75,0],[1,0],[1,0.25],[1,0.5],[1,0.75],[1,1],[0.75,1],[0.5,1],[0.25,1],[0,1],[0,0.75],[0,0.5],[0,0.25]];outlineConnect=0;gradientColor=none;html=1;whiteSpace=wrap;fontSize=12;fontStyle=0;container=1;pointerEvents=0;collapsible=0;recursiveResize=0;shape=mxgraph.aws4.group;grIcon=mxgraph.aws4.group_security_group;grStroke=0;strokeColor=#147EBA;fillColor=#E6F2F8;verticalAlign=top;align=left;spacingLeft=30;fontColor=#147EBA;dashed=0;" vertex="1" parent="1">
          <mxGeometry x="600" y="410" width="350" height="130" as="geometry" />
        </mxCell>
        <mxCell id="FbLSjocSeh3icAdCr7Oj-24" value="Public subnet" style="points=[[0,0],[0.25,0],[0.5,0],[0.75,0],[1,0],[1,0.25],[1,0.5],[1,0.75],[1,1],[0.75,1],[0.5,1],[0.25,1],[0,1],[0,0.75],[0,0.5],[0,0.25]];outlineConnect=0;gradientColor=none;html=1;whiteSpace=wrap;fontSize=12;fontStyle=0;container=1;pointerEvents=0;collapsible=0;recursiveResize=0;shape=mxgraph.aws4.group;grIcon=mxgraph.aws4.group_security_group;grStroke=0;strokeColor=#248814;fillColor=#E9F3E6;verticalAlign=top;align=left;spacingLeft=30;fontColor=#248814;dashed=0;" vertex="1" parent="1">
          <mxGeometry x="200" y="420" width="300" height="130" as="geometry" />
        </mxCell>
        <mxCell id="FbLSjocSeh3icAdCr7Oj-39" value="10.0.1.0/24" style="text;html=1;align=center;verticalAlign=middle;resizable=0;points=[];autosize=1;strokeColor=none;fillColor=none;" vertex="1" parent="FbLSjocSeh3icAdCr7Oj-24">
          <mxGeometry y="20" width="80" height="30" as="geometry" />
        </mxCell>
        <mxCell id="GG2P7iOBwu5DhiZd1Pa6-50" style="edgeStyle=orthogonalEdgeStyle;rounded=0;orthogonalLoop=1;jettySize=auto;html=1;" parent="1" target="GG2P7iOBwu5DhiZd1Pa6-48" edge="1">
          <mxGeometry relative="1" as="geometry">
            <mxPoint x="610" y="401" as="sourcePoint" />
          </mxGeometry>
        </mxCell>
        <mxCell id="GG2P7iOBwu5DhiZd1Pa6-42" style="edgeStyle=orthogonalEdgeStyle;rounded=0;orthogonalLoop=1;jettySize=auto;html=1;labelPosition=center;verticalLabelPosition=top;align=center;verticalAlign=bottom;" parent="1" source="GG2P7iOBwu5DhiZd1Pa6-36" edge="1">
          <mxGeometry relative="1" as="geometry">
            <mxPoint x="386" y="228.5" as="targetPoint" />
          </mxGeometry>
        </mxCell>
        <mxCell id="GG2P7iOBwu5DhiZd1Pa6-52" value="" style="endArrow=none;html=1;rounded=0;entryX=1;entryY=0.5;entryDx=0;entryDy=0;entryPerimeter=0;" parent="1" source="GG2P7iOBwu5DhiZd1Pa6-35" edge="1">
          <mxGeometry width="50" height="50" relative="1" as="geometry">
            <mxPoint x="486" y="331.51282051282055" as="sourcePoint" />
            <mxPoint x="386" y="228.5" as="targetPoint" />
          </mxGeometry>
        </mxCell>
        <mxCell id="GG2P7iOBwu5DhiZd1Pa6-54" value="" style="endArrow=none;html=1;rounded=0;exitX=1;exitY=0.5;exitDx=0;exitDy=0;exitPerimeter=0;" parent="1" target="GG2P7iOBwu5DhiZd1Pa6-35" edge="1">
          <mxGeometry width="50" height="50" relative="1" as="geometry">
            <mxPoint x="386" y="350" as="sourcePoint" />
            <mxPoint x="412" y="300" as="targetPoint" />
          </mxGeometry>
        </mxCell>
        <mxCell id="FbLSjocSeh3icAdCr7Oj-33" style="edgeStyle=orthogonalEdgeStyle;rounded=0;orthogonalLoop=1;jettySize=auto;html=1;" edge="1" parent="1" source="FbLSjocSeh3icAdCr7Oj-20" target="FbLSjocSeh3icAdCr7Oj-29">
          <mxGeometry relative="1" as="geometry">
            <Array as="points">
              <mxPoint x="550" y="213" />
              <mxPoint x="550" y="213" />
            </Array>
          </mxGeometry>
        </mxCell>
        <mxCell id="FbLSjocSeh3icAdCr7Oj-20" value="Private subnet" style="points=[[0,0],[0.25,0],[0.5,0],[0.75,0],[1,0],[1,0.25],[1,0.5],[1,0.75],[1,1],[0.75,1],[0.5,1],[0.25,1],[0,1],[0,0.75],[0,0.5],[0,0.25]];outlineConnect=0;gradientColor=none;html=1;whiteSpace=wrap;fontSize=12;fontStyle=0;container=1;pointerEvents=0;collapsible=0;recursiveResize=0;shape=mxgraph.aws4.group;grIcon=mxgraph.aws4.group_security_group;grStroke=0;strokeColor=#147EBA;fillColor=#E6F2F8;verticalAlign=top;align=left;spacingLeft=30;fontColor=#147EBA;dashed=0;" vertex="1" parent="1">
          <mxGeometry x="600" y="160" width="350" height="164.5" as="geometry" />
        </mxCell>
        <mxCell id="FbLSjocSeh3icAdCr7Oj-38" value="10.0.2.0/23" style="text;html=1;align=center;verticalAlign=middle;resizable=0;points=[];autosize=1;strokeColor=none;fillColor=none;" vertex="1" parent="FbLSjocSeh3icAdCr7Oj-20">
          <mxGeometry y="20" width="80" height="30" as="geometry" />
        </mxCell>
        <mxCell id="FbLSjocSeh3icAdCr7Oj-27" value="&lt;b&gt;IGW&lt;/b&gt;" style="outlineConnect=0;dashed=0;verticalLabelPosition=bottom;verticalAlign=top;align=center;html=1;shape=mxgraph.aws3.internet_gateway;fillColor=#F58534;gradientColor=none;" vertex="1" parent="1">
          <mxGeometry y="330.5" width="50" height="52.5" as="geometry" />
        </mxCell>
        <mxCell id="FbLSjocSeh3icAdCr7Oj-28" value="" style="edgeStyle=orthogonalEdgeStyle;rounded=0;orthogonalLoop=1;jettySize=auto;html=1;endArrow=none;" edge="1" parent="1" source="GG2P7iOBwu5DhiZd1Pa6-23" target="FbLSjocSeh3icAdCr7Oj-27">
          <mxGeometry relative="1" as="geometry">
            <mxPoint x="-19" y="356.57142857142867" as="sourcePoint" />
            <mxPoint x="91" y="356" as="targetPoint" />
          </mxGeometry>
        </mxCell>
        <mxCell id="FbLSjocSeh3icAdCr7Oj-34" style="edgeStyle=orthogonalEdgeStyle;rounded=0;orthogonalLoop=1;jettySize=auto;html=1;" edge="1" parent="1" source="FbLSjocSeh3icAdCr7Oj-29" target="FbLSjocSeh3icAdCr7Oj-27">
          <mxGeometry relative="1" as="geometry" />
        </mxCell>
        <mxCell id="FbLSjocSeh3icAdCr7Oj-29" value="&lt;b&gt;NAT&lt;/b&gt;" style="outlineConnect=0;dashed=0;verticalLabelPosition=bottom;verticalAlign=top;align=center;html=1;shape=mxgraph.aws3.vpc_nat_gateway;fillColor=#F58536;gradientColor=none;" vertex="1" parent="1">
          <mxGeometry x="310" y="184.5" width="60" height="57.5" as="geometry" />
        </mxCell>
        <mxCell id="FbLSjocSeh3icAdCr7Oj-32" style="edgeStyle=orthogonalEdgeStyle;rounded=0;orthogonalLoop=1;jettySize=auto;html=1;" edge="1" parent="1" source="FbLSjocSeh3icAdCr7Oj-30" target="FbLSjocSeh3icAdCr7Oj-20">
          <mxGeometry relative="1" as="geometry">
            <Array as="points">
              <mxPoint x="550" y="295" />
              <mxPoint x="550" y="295" />
            </Array>
          </mxGeometry>
        </mxCell>
        <mxCell id="FbLSjocSeh3icAdCr7Oj-30" value="&lt;b&gt;Bastion Host&lt;/b&gt;" style="outlineConnect=0;dashed=0;verticalLabelPosition=bottom;verticalAlign=top;align=center;html=1;shape=mxgraph.aws3.ec2;fillColor=#F58534;gradientColor=none;" vertex="1" parent="1">
          <mxGeometry x="317" y="264.5" width="45" height="60" as="geometry" />
        </mxCell>
        <mxCell id="FbLSjocSeh3icAdCr7Oj-37" value="10.0.0.0/24" style="text;html=1;align=center;verticalAlign=middle;resizable=0;points=[];autosize=1;strokeColor=none;fillColor=none;" vertex="1" parent="1">
          <mxGeometry x="220" y="180" width="80" height="30" as="geometry" />
        </mxCell>
        <mxCell id="FbLSjocSeh3icAdCr7Oj-40" value="10.0.4.0/23" style="text;html=1;align=center;verticalAlign=middle;resizable=0;points=[];autosize=1;strokeColor=none;fillColor=none;" vertex="1" parent="1">
          <mxGeometry x="600" y="430" width="80" height="30" as="geometry" />
        </mxCell>
      </root>
    </mxGraphModel>
  </diagram>
</mxfile>
